STARTFONT 2.1
COMMENT
COMMENT Converted from OpenType font "Patriot-Bold.otf" by "otf2bdf 3.0".
COMMENT
FONT -FreeType-Patriot Bold-Medium-R-Normal--11-80-100-100-P-58-ISO10646-1
SIZE 8 100 100
FONTBOUNDINGBOX 20 14 -5 -3
STARTPROPERTIES 19
FOUNDRY "FreeType"
FAMILY_NAME "Patriot Bold"
WEIGHT_NAME "Medium"
SLANT "R"
SETWIDTH_NAME "Normal"
ADD_STYLE_NAME ""
PIXEL_SIZE 11
POINT_SIZE 80
RESOLUTION_X 100
RESOLUTION_Y 100
SPACING "P"
AVERAGE_WIDTH 58
CHARSET_REGISTRY "ISO10646"
CHARSET_ENCODING "1"
FONT_ASCENT 11
FONT_DESCENT 2
COPYRIGHT "Copyright © 2020 by Behalf Studio. All rights reserved."
_OTF_FONTFILE "Patriot-Bold.otf"
_OTF_PSNAME "Patriot-Bold"
ENDPROPERTIES
CHARS 426
STARTCHAR 0020
ENCODING 32
SWIDTH 360 0
DWIDTH 4 0
BBX 0 0 0 0
BITMAP
ENDCHAR
STARTCHAR 0021
ENCODING 33
SWIDTH 270 0
DWIDTH 3 0
BBX 2 8 1 0
BITMAP
80
80
80
80
80
00
80
C0
ENDCHAR
STARTCHAR 0022
ENCODING 34
SWIDTH 270 0
DWIDTH 3 0
BBX 2 3 1 5
BITMAP
C0
C0
C0
ENDCHAR
STARTCHAR 0023
ENCODING 35
SWIDTH 630 0
DWIDTH 7 0
BBX 6 8 1 0
BITMAP
68
48
FC
FC
58
F8
D0
D0
ENDCHAR
STARTCHAR 0024
ENCODING 36
SWIDTH 540 0
DWIDTH 6 0
BBX 5 10 1 -1
BITMAP
20
70
F0
C0
E0
30
18
D8
F0
20
ENDCHAR
STARTCHAR 0025
ENCODING 37
SWIDTH 900 0
DWIDTH 10 0
BBX 9 8 1 0
BITMAP
E200
B200
B400
E800
1B00
1780
2480
6780
ENDCHAR
STARTCHAR 0026
ENCODING 38
SWIDTH 630 0
DWIDTH 7 0
BBX 6 8 1 0
BITMAP
70
F8
80
FC
FC
88
D8
F0
ENDCHAR
STARTCHAR 0027
ENCODING 39
SWIDTH 180 0
DWIDTH 2 0
BBX 1 3 1 5
BITMAP
80
80
80
ENDCHAR
STARTCHAR 0028
ENCODING 40
SWIDTH 360 0
DWIDTH 4 0
BBX 2 11 1 -2
BITMAP
40
40
80
80
80
80
80
80
C0
40
40
ENDCHAR
STARTCHAR 0029
ENCODING 41
SWIDTH 360 0
DWIDTH 4 0
BBX 2 11 1 -2
BITMAP
80
80
40
40
40
40
40
40
40
80
80
ENDCHAR
STARTCHAR 002A
ENCODING 42
SWIDTH 450 0
DWIDTH 5 0
BBX 3 4 1 4
BITMAP
40
E0
40
A0
ENDCHAR
STARTCHAR 002B
ENCODING 43
SWIDTH 540 0
DWIDTH 6 0
BBX 5 5 1 1
BITMAP
20
20
F8
20
20
ENDCHAR
STARTCHAR 002C
ENCODING 44
SWIDTH 270 0
DWIDTH 3 0
BBX 1 2 1 -1
BITMAP
80
80
ENDCHAR
STARTCHAR 002D
ENCODING 45
SWIDTH 450 0
DWIDTH 5 0
BBX 3 1 1 2
BITMAP
E0
ENDCHAR
STARTCHAR 002E
ENCODING 46
SWIDTH 270 0
DWIDTH 3 0
BBX 2 2 1 0
BITMAP
80
C0
ENDCHAR
STARTCHAR 002F
ENCODING 47
SWIDTH 360 0
DWIDTH 4 0
BBX 3 8 1 0
BITMAP
20
20
60
40
40
C0
80
80
ENDCHAR
STARTCHAR 0030
ENCODING 48
SWIDTH 720 0
DWIDTH 8 0
BBX 8 8 0 0
BITMAP
3C
7E
43
C3
C3
43
66
3C
ENDCHAR
STARTCHAR 0031
ENCODING 49
SWIDTH 270 0
DWIDTH 3 0
BBX 2 8 1 0
BITMAP
40
C0
40
40
40
40
40
40
ENDCHAR
STARTCHAR 0032
ENCODING 50
SWIDTH 540 0
DWIDTH 6 0
BBX 6 8 0 0
BITMAP
38
7C
CC
0C
18
30
60
FC
ENDCHAR
STARTCHAR 0033
ENCODING 51
SWIDTH 540 0
DWIDTH 6 0
BBX 5 8 1 0
BITMAP
F0
F0
60
F0
18
18
B0
F0
ENDCHAR
STARTCHAR 0034
ENCODING 52
SWIDTH 540 0
DWIDTH 6 0
BBX 6 8 0 0
BITMAP
18
78
68
C8
C8
FC
08
08
ENDCHAR
STARTCHAR 0035
ENCODING 53
SWIDTH 540 0
DWIDTH 6 0
BBX 5 8 1 0
BITMAP
F8
F8
80
F0
98
18
98
F0
ENDCHAR
STARTCHAR 0036
ENCODING 54
SWIDTH 630 0
DWIDTH 7 0
BBX 6 8 1 0
BITMAP
30
60
70
F8
8C
8C
D8
78
ENDCHAR
STARTCHAR 0037
ENCODING 55
SWIDTH 450 0
DWIDTH 5 0
BBX 6 8 0 0
BITMAP
FC
F8
18
78
78
30
20
60
ENDCHAR
STARTCHAR 0038
ENCODING 56
SWIDTH 540 0
DWIDTH 6 0
BBX 6 8 0 0
BITMAP
38
78
68
78
4C
CC
6C
78
ENDCHAR
STARTCHAR 0039
ENCODING 57
SWIDTH 540 0
DWIDTH 6 0
BBX 7 8 0 0
BITMAP
38
7C
C4
C6
6C
3C
18
30
ENDCHAR
STARTCHAR 003A
ENCODING 58
SWIDTH 270 0
DWIDTH 3 0
BBX 2 6 1 0
BITMAP
80
C0
00
00
80
C0
ENDCHAR
STARTCHAR 003B
ENCODING 59
SWIDTH 270 0
DWIDTH 3 0
BBX 2 7 1 -1
BITMAP
80
C0
00
00
00
80
80
ENDCHAR
STARTCHAR 003C
ENCODING 60
SWIDTH 540 0
DWIDTH 6 0
BBX 5 5 1 1
BITMAP
18
70
80
70
18
ENDCHAR
STARTCHAR 003D
ENCODING 61
SWIDTH 540 0
DWIDTH 6 0
BBX 5 3 1 2
BITMAP
F8
00
F8
ENDCHAR
STARTCHAR 003E
ENCODING 62
SWIDTH 540 0
DWIDTH 6 0
BBX 5 5 1 1
BITMAP
80
70
18
70
80
ENDCHAR
STARTCHAR 003F
ENCODING 63
SWIDTH 450 0
DWIDTH 5 0
BBX 3 8 1 0
BITMAP
E0
A0
20
60
40
00
40
40
ENDCHAR
STARTCHAR 0040
ENCODING 64
SWIDTH 810 0
DWIDTH 9 0
BBX 8 8 1 0
BITMAP
3C
42
9A
A9
AA
B6
C0
7C
ENDCHAR
STARTCHAR 0041
ENCODING 65
SWIDTH 540 0
DWIDTH 6 0
BBX 5 8 1 0
BITMAP
70
F0
98
98
98
98
F8
F8
ENDCHAR
STARTCHAR 0042
ENCODING 66
SWIDTH 630 0
DWIDTH 7 0
BBX 7 8 0 0
BITMAP
78
7C
66
FC
FE
66
7E
7C
ENDCHAR
STARTCHAR 0043
ENCODING 67
SWIDTH 630 0
DWIDTH 7 0
BBX 7 8 0 0
BITMAP
1C
7E
60
C0
C0
40
76
3E
ENDCHAR
STARTCHAR 0044
ENCODING 68
SWIDTH 630 0
DWIDTH 7 0
BBX 6 8 1 0
BITMAP
F0
F8
8C
84
84
8C
FC
F0
ENDCHAR
STARTCHAR 0045
ENCODING 69
SWIDTH 450 0
DWIDTH 5 0
BBX 6 8 0 0
BITMAP
70
70
60
F8
F8
60
7C
7C
ENDCHAR
STARTCHAR 0046
ENCODING 70
SWIDTH 450 0
DWIDTH 5 0
BBX 5 8 0 0
BITMAP
78
78
60
60
F8
60
60
60
ENDCHAR
STARTCHAR 0047
ENCODING 71
SWIDTH 810 0
DWIDTH 9 0
BBX 9 8 0 0
BITMAP
1C00
7E00
6000
CF80
CF80
4300
7700
3E00
ENDCHAR
STARTCHAR 0048
ENCODING 72
SWIDTH 540 0
DWIDTH 6 0
BBX 6 8 0 0
BITMAP
6C
6C
6C
6C
FC
6C
6C
6C
ENDCHAR
STARTCHAR 0049
ENCODING 73
SWIDTH 180 0
DWIDTH 2 0
BBX 3 9 0 0
BITMAP
40
E0
40
00
40
40
40
40
40
ENDCHAR
STARTCHAR 004A
ENCODING 74
SWIDTH 450 0
DWIDTH 5 0
BBX 4 8 1 0
BITMAP
70
70
30
30
30
30
B0
E0
ENDCHAR
STARTCHAR 004B
ENCODING 75
SWIDTH 540 0
DWIDTH 6 0
BBX 6 8 0 0
BITMAP
6C
6C
6C
F8
FC
6C
6C
6C
ENDCHAR
STARTCHAR 004C
ENCODING 76
SWIDTH 450 0
DWIDTH 5 0
BBX 4 8 1 0
BITMAP
80
80
80
80
80
80
F0
F0
ENDCHAR
STARTCHAR 004D
ENCODING 77
SWIDTH 810 0
DWIDTH 9 0
BBX 9 8 0 0
BITMAP
4880
EE80
7F80
7D80
6C80
6C80
6C80
6C80
ENDCHAR
STARTCHAR 004E
ENCODING 78
SWIDTH 540 0
DWIDTH 6 0
BBX 6 8 0 0
BITMAP
4C
EC
7C
7C
6C
6C
6C
6C
ENDCHAR
STARTCHAR 004F
ENCODING 79
SWIDTH 810 0
DWIDTH 9 0
BBX 9 8 0 0
BITMAP
1E00
7F00
6100
C180
C180
4180
7700
3E00
ENDCHAR
STARTCHAR 0050
ENCODING 80
SWIDTH 540 0
DWIDTH 6 0
BBX 6 8 0 0
BITMAP
78
7C
64
6C
FC
60
60
60
ENDCHAR
STARTCHAR 0051
ENCODING 81
SWIDTH 810 0
DWIDTH 9 0
BBX 9 8 0 0
BITMAP
1E00
7F00
6100
C180
C180
4180
7700
3F00
ENDCHAR
STARTCHAR 0052
ENCODING 82
SWIDTH 540 0
DWIDTH 6 0
BBX 7 8 0 0
BITMAP
78
7C
66
6C
FC
6C
64
64
ENDCHAR
STARTCHAR 0053
ENCODING 83
SWIDTH 450 0
DWIDTH 5 0
BBX 5 8 0 0
BITMAP
70
78
40
70
38
08
F8
78
ENDCHAR
STARTCHAR 0054
ENCODING 84
SWIDTH 450 0
DWIDTH 5 0
BBX 6 8 0 0
BITMAP
FC
FC
30
30
30
30
30
30
ENDCHAR
STARTCHAR 0055
ENCODING 85
SWIDTH 540 0
DWIDTH 6 0
BBX 5 8 1 0
BITMAP
98
98
98
98
98
98
F0
F0
ENDCHAR
STARTCHAR 0056
ENCODING 86
SWIDTH 450 0
DWIDTH 5 0
BBX 5 8 0 0
BITMAP
D8
D8
D8
D8
D8
D8
50
70
ENDCHAR
STARTCHAR 0057
ENCODING 87
SWIDTH 720 0
DWIDTH 8 0
BBX 8 8 0 0
BITMAP
D9
D9
D9
D9
D9
DB
5F
76
ENDCHAR
STARTCHAR 0058
ENCODING 88
SWIDTH 540 0
DWIDTH 6 0
BBX 5 8 1 0
BITMAP
98
98
98
F0
F0
98
98
98
ENDCHAR
STARTCHAR 0059
ENCODING 89
SWIDTH 450 0
DWIDTH 5 0
BBX 5 8 0 0
BITMAP
C8
C8
C8
C8
48
78
30
30
ENDCHAR
STARTCHAR 005A
ENCODING 90
SWIDTH 540 0
DWIDTH 6 0
BBX 6 8 0 0
BITMAP
FC
F8
18
30
30
60
7C
FC
ENDCHAR
STARTCHAR 005B
ENCODING 91
SWIDTH 270 0
DWIDTH 3 0
BBX 2 11 1 -2
BITMAP
C0
80
80
80
80
80
80
80
80
80
C0
ENDCHAR
STARTCHAR 005C
ENCODING 92
SWIDTH 360 0
DWIDTH 4 0
BBX 3 8 1 0
BITMAP
80
80
C0
40
40
60
60
20
ENDCHAR
STARTCHAR 005D
ENCODING 93
SWIDTH 270 0
DWIDTH 3 0
BBX 2 11 1 -2
BITMAP
C0
C0
C0
C0
C0
C0
C0
C0
C0
C0
C0
ENDCHAR
STARTCHAR 005E
ENCODING 94
SWIDTH 540 0
DWIDTH 6 0
BBX 4 3 1 4
BITMAP
60
60
90
ENDCHAR
STARTCHAR 005F
ENCODING 95
SWIDTH 540 0
DWIDTH 6 0
BBX 5 1 1 -1
BITMAP
F8
ENDCHAR
STARTCHAR 0060
ENCODING 96
SWIDTH 90 0
DWIDTH 1 0
BBX 1 1 0 9
BITMAP
80
ENDCHAR
STARTCHAR 0061
ENCODING 97
SWIDTH 540 0
DWIDTH 6 0
BBX 5 8 1 0
BITMAP
70
F0
98
98
98
98
F8
F8
ENDCHAR
STARTCHAR 0062
ENCODING 98
SWIDTH 630 0
DWIDTH 7 0
BBX 7 8 0 0
BITMAP
78
7C
66
FC
FE
66
7E
7C
ENDCHAR
STARTCHAR 0063
ENCODING 99
SWIDTH 630 0
DWIDTH 7 0
BBX 7 8 0 0
BITMAP
1C
7E
60
C0
C0
40
76
3E
ENDCHAR
STARTCHAR 0064
ENCODING 100
SWIDTH 630 0
DWIDTH 7 0
BBX 6 8 1 0
BITMAP
F0
F8
8C
84
84
8C
FC
F0
ENDCHAR
STARTCHAR 0065
ENCODING 101
SWIDTH 450 0
DWIDTH 5 0
BBX 6 8 0 0
BITMAP
70
70
60
F8
F8
60
7C
7C
ENDCHAR
STARTCHAR 0066
ENCODING 102
SWIDTH 450 0
DWIDTH 5 0
BBX 5 8 0 0
BITMAP
78
78
60
60
F8
60
60
60
ENDCHAR
STARTCHAR 0067
ENCODING 103
SWIDTH 810 0
DWIDTH 9 0
BBX 9 8 0 0
BITMAP
1C00
7E00
6000
CF80
CF80
4300
7700
3E00
ENDCHAR
STARTCHAR 0068
ENCODING 104
SWIDTH 540 0
DWIDTH 6 0
BBX 6 8 0 0
BITMAP
6C
6C
6C
6C
FC
6C
6C
6C
ENDCHAR
STARTCHAR 0069
ENCODING 105
SWIDTH 180 0
DWIDTH 2 0
BBX 3 9 0 0
BITMAP
40
E0
40
00
40
40
40
40
40
ENDCHAR
STARTCHAR 006A
ENCODING 106
SWIDTH 450 0
DWIDTH 5 0
BBX 4 8 1 0
BITMAP
70
70
30
30
30
30
B0
E0
ENDCHAR
STARTCHAR 006B
ENCODING 107
SWIDTH 540 0
DWIDTH 6 0
BBX 6 8 0 0
BITMAP
6C
6C
6C
F8
FC
6C
6C
6C
ENDCHAR
STARTCHAR 006C
ENCODING 108
SWIDTH 450 0
DWIDTH 5 0
BBX 4 8 1 0
BITMAP
80
80
80
80
80
80
F0
F0
ENDCHAR
STARTCHAR 006D
ENCODING 109
SWIDTH 810 0
DWIDTH 9 0
BBX 9 8 0 0
BITMAP
4880
EE80
7F80
7D80
6C80
6C80
6C80
6C80
ENDCHAR
STARTCHAR 006E
ENCODING 110
SWIDTH 540 0
DWIDTH 6 0
BBX 6 8 0 0
BITMAP
4C
EC
7C
7C
6C
6C
6C
6C
ENDCHAR
STARTCHAR 006F
ENCODING 111
SWIDTH 810 0
DWIDTH 9 0
BBX 9 8 0 0
BITMAP
1E00
7F00
6100
C180
C180
4180
7700
3E00
ENDCHAR
STARTCHAR 0070
ENCODING 112
SWIDTH 540 0
DWIDTH 6 0
BBX 6 8 0 0
BITMAP
78
7C
64
6C
FC
60
60
60
ENDCHAR
STARTCHAR 0071
ENCODING 113
SWIDTH 810 0
DWIDTH 9 0
BBX 9 8 0 0
BITMAP
1E00
7F00
6100
C180
C180
4180
7700
3F00
ENDCHAR
STARTCHAR 0072
ENCODING 114
SWIDTH 540 0
DWIDTH 6 0
BBX 7 8 0 0
BITMAP
78
7C
66
6C
FC
6C
64
64
ENDCHAR
STARTCHAR 0073
ENCODING 115
SWIDTH 450 0
DWIDTH 5 0
BBX 5 8 0 0
BITMAP
70
78
40
70
38
08
F8
78
ENDCHAR
STARTCHAR 0074
ENCODING 116
SWIDTH 450 0
DWIDTH 5 0
BBX 6 8 0 0
BITMAP
FC
FC
30
30
30
30
30
30
ENDCHAR
STARTCHAR 0075
ENCODING 117
SWIDTH 540 0
DWIDTH 6 0
BBX 5 8 1 0
BITMAP
98
98
98
98
98
98
F0
F0
ENDCHAR
STARTCHAR 0076
ENCODING 118
SWIDTH 450 0
DWIDTH 5 0
BBX 5 8 0 0
BITMAP
D8
D8
D8
D8
D8
D8
50
70
ENDCHAR
STARTCHAR 0077
ENCODING 119
SWIDTH 720 0
DWIDTH 8 0
BBX 8 8 0 0
BITMAP
D9
D9
D9
D9
D9
DB
5F
76
ENDCHAR
STARTCHAR 0078
ENCODING 120
SWIDTH 540 0
DWIDTH 6 0
BBX 5 8 1 0
BITMAP
98
98
98
F0
F0
98
98
98
ENDCHAR
STARTCHAR 0079
ENCODING 121
SWIDTH 450 0
DWIDTH 5 0
BBX 5 8 0 0
BITMAP
C8
C8
C8
C8
48
78
30
30
ENDCHAR
STARTCHAR 007A
ENCODING 122
SWIDTH 540 0
DWIDTH 6 0
BBX 6 8 0 0
BITMAP
FC
F8
18
30
30
60
7C
FC
ENDCHAR
STARTCHAR 007B
ENCODING 123
SWIDTH 270 0
DWIDTH 3 0
BBX 2 11 1 -2
BITMAP
C0
80
80
80
80
80
80
80
80
C0
40
ENDCHAR
STARTCHAR 007C
ENCODING 124
SWIDTH 180 0
DWIDTH 2 0
BBX 1 8 1 0
BITMAP
80
80
80
80
80
80
80
80
ENDCHAR
STARTCHAR 007D
ENCODING 125
SWIDTH 270 0
DWIDTH 3 0
BBX 2 11 1 -2
BITMAP
80
C0
C0
C0
40
40
C0
C0
C0
C0
80
ENDCHAR
STARTCHAR 007E
ENCODING 126
SWIDTH 540 0
DWIDTH 6 0
BBX 5 1 1 3
BITMAP
F8
ENDCHAR
STARTCHAR 00A1
ENCODING 161
SWIDTH 270 0
DWIDTH 3 0
BBX 2 8 1 -1
BITMAP
80
C0
00
80
80
80
80
80
ENDCHAR
STARTCHAR 00A2
ENCODING 162
SWIDTH 450 0
DWIDTH 5 0
BBX 4 7 1 0
BITMAP
20
F0
80
80
D0
70
20
ENDCHAR
STARTCHAR 00A3
ENCODING 163
SWIDTH 540 0
DWIDTH 6 0
BBX 5 8 1 0
BITMAP
38
78
C0
C0
F0
60
C0
F8
ENDCHAR
STARTCHAR 00A4
ENCODING 164
SWIDTH 540 0
DWIDTH 6 0
BBX 5 5 1 1
BITMAP
F8
88
88
D8
F8
ENDCHAR
STARTCHAR 00A5
ENCODING 165
SWIDTH 630 0
DWIDTH 7 0
BBX 6 8 1 0
BITMAP
CC
C8
78
70
F8
30
F8
30
ENDCHAR
STARTCHAR 00A6
ENCODING 166
SWIDTH 180 0
DWIDTH 2 0
BBX 1 8 1 0
BITMAP
80
80
00
00
00
80
80
80
ENDCHAR
STARTCHAR 00A7
ENCODING 167
SWIDTH 450 0
DWIDTH 5 0
BBX 4 9 1 -1
BITMAP
E0
F0
C0
E0
B0
F0
60
B0
F0
ENDCHAR
STARTCHAR 00A8
ENCODING 168
SWIDTH 360 0
DWIDTH 4 0
BBX 5 2 0 8
BITMAP
D8
D0
ENDCHAR
STARTCHAR 00A9
ENCODING 169
SWIDTH 810 0
DWIDTH 9 0
BBX 8 8 1 0
BITMAP
3C
42
B9
A1
A1
B9
82
7C
ENDCHAR
STARTCHAR 00AB
ENCODING 171
SWIDTH 630 0
DWIDTH 7 0
BBX 5 5 1 1
BITMAP
68
D8
B0
D0
68
ENDCHAR
STARTCHAR 00AC
ENCODING 172
SWIDTH 540 0
DWIDTH 6 0
BBX 5 3 1 1
BITMAP
F8
08
08
ENDCHAR
STARTCHAR 00AE
ENCODING 174
SWIDTH 450 0
DWIDTH 5 0
BBX 4 4 1 4
BITMAP
E0
F0
F0
F0
ENDCHAR
STARTCHAR 00AF
ENCODING 175
SWIDTH 270 0
DWIDTH 3 0
BBX 3 1 0 9
BITMAP
E0
ENDCHAR
STARTCHAR 00B0
ENCODING 176
SWIDTH 360 0
DWIDTH 4 0
BBX 2 3 1 5
BITMAP
C0
C0
C0
ENDCHAR
STARTCHAR 00B1
ENCODING 177
SWIDTH 540 0
DWIDTH 6 0
BBX 5 5 1 1
BITMAP
20
F8
20
00
F8
ENDCHAR
STARTCHAR 00B4
ENCODING 180
SWIDTH 90 0
DWIDTH 1 0
BBX 2 1 0 9
BITMAP
C0
ENDCHAR
STARTCHAR 00B6
ENCODING 182
SWIDTH 540 0
DWIDTH 6 0
BBX 4 9 1 -1
BITMAP
60
F0
F0
F0
70
30
30
30
30
ENDCHAR
STARTCHAR 00B7
ENCODING 183
SWIDTH 270 0
DWIDTH 3 0
BBX 1 2 1 2
BITMAP
80
80
ENDCHAR
STARTCHAR 00B8
ENCODING 184
SWIDTH 180 0
DWIDTH 2 0
BBX 3 2 0 -2
BITMAP
40
E0
ENDCHAR
STARTCHAR 00BB
ENCODING 187
SWIDTH 630 0
DWIDTH 7 0
BBX 5 5 1 1
BITMAP
B0
58
68
58
D0
ENDCHAR
STARTCHAR 00BF
ENCODING 191
SWIDTH 450 0
DWIDTH 5 0
BBX 3 8 1 -1
BITMAP
60
60
00
40
40
C0
A0
E0
ENDCHAR
STARTCHAR 00C0
ENCODING 192
SWIDTH 540 0
DWIDTH 6 0
BBX 5 10 1 0
BITMAP
40
00
70
F0
98
98
98
98
F8
F8
ENDCHAR
STARTCHAR 00C1
ENCODING 193
SWIDTH 540 0
DWIDTH 6 0
BBX 5 10 1 0
BITMAP
20
00
70
F0
98
98
98
98
F8
F8
ENDCHAR
STARTCHAR 00C2
ENCODING 194
SWIDTH 540 0
DWIDTH 6 0
BBX 5 10 1 0
BITMAP
60
00
70
F0
98
98
98
98
F8
F8
ENDCHAR
STARTCHAR 00C3
ENCODING 195
SWIDTH 540 0
DWIDTH 6 0
BBX 5 10 1 0
BITMAP
60
00
70
F0
98
98
98
98
F8
F8
ENDCHAR
STARTCHAR 00C4
ENCODING 196
SWIDTH 540 0
DWIDTH 6 0
BBX 5 10 1 0
BITMAP
D0
90
70
F0
98
98
98
98
F8
F8
ENDCHAR
STARTCHAR 00C5
ENCODING 197
SWIDTH 540 0
DWIDTH 6 0
BBX 5 11 1 0
BITMAP
60
60
20
70
F0
98
98
98
98
F8
F8
ENDCHAR
STARTCHAR 00C7
ENCODING 199
SWIDTH 630 0
DWIDTH 7 0
BBX 7 10 0 -2
BITMAP
1C
7E
60
C0
C0
40
76
3E
08
18
ENDCHAR
STARTCHAR 00C8
ENCODING 200
SWIDTH 450 0
DWIDTH 5 0
BBX 6 10 0 0
BITMAP
20
00
70
70
60
F8
F8
60
7C
7C
ENDCHAR
STARTCHAR 00C9
ENCODING 201
SWIDTH 450 0
DWIDTH 5 0
BBX 6 10 0 0
BITMAP
10
00
70
70
60
F8
F8
60
7C
7C
ENDCHAR
STARTCHAR 00CA
ENCODING 202
SWIDTH 450 0
DWIDTH 5 0
BBX 6 10 0 0
BITMAP
20
10
70
70
60
F8
F8
60
7C
7C
ENDCHAR
STARTCHAR 00CB
ENCODING 203
SWIDTH 450 0
DWIDTH 5 0
BBX 6 10 0 0
BITMAP
D8
58
70
70
60
F8
F8
60
7C
7C
ENDCHAR
STARTCHAR 00CC
ENCODING 204
SWIDTH 180 0
DWIDTH 2 0
BBX 2 7 0 0
BITMAP
80
00
40
40
40
40
40
ENDCHAR
STARTCHAR 00CD
ENCODING 205
SWIDTH 180 0
DWIDTH 2 0
BBX 2 7 1 0
BITMAP
C0
00
80
80
80
80
80
ENDCHAR
STARTCHAR 00CE
ENCODING 206
SWIDTH 180 0
DWIDTH 2 0
BBX 1 7 1 0
BITMAP
80
00
80
80
80
80
80
ENDCHAR
STARTCHAR 00CF
ENCODING 207
SWIDTH 180 0
DWIDTH 2 0
BBX 5 7 -1 0
BITMAP
D8
58
20
20
20
20
20
ENDCHAR
STARTCHAR 00D1
ENCODING 209
SWIDTH 540 0
DWIDTH 6 0
BBX 6 10 0 0
BITMAP
30
00
4C
EC
7C
7C
6C
6C
6C
6C
ENDCHAR
STARTCHAR 00D2
ENCODING 210
SWIDTH 810 0
DWIDTH 9 0
BBX 9 10 0 0
BITMAP
0800
0000
1E00
7F00
6100
C180
C180
4180
7700
3E00
ENDCHAR
STARTCHAR 00D3
ENCODING 211
SWIDTH 810 0
DWIDTH 9 0
BBX 9 10 0 0
BITMAP
0400
0000
1E00
7F00
6100
C180
C180
4180
7700
3E00
ENDCHAR
STARTCHAR 00D4
ENCODING 212
SWIDTH 810 0
DWIDTH 9 0
BBX 9 10 0 0
BITMAP
0800
0000
1E00
7F00
6100
C180
C180
4180
7700
3E00
ENDCHAR
STARTCHAR 00D5
ENCODING 213
SWIDTH 810 0
DWIDTH 9 0
BBX 9 10 0 0
BITMAP
1C00
0000
1E00
7F00
6100
C180
C180
4180
7700
3E00
ENDCHAR
STARTCHAR 00D6
ENCODING 214
SWIDTH 810 0
DWIDTH 9 0
BBX 9 10 0 0
BITMAP
3600
1600
1E00
7F00
6100
C180
C180
4180
7700
3E00
ENDCHAR
STARTCHAR 00D7
ENCODING 215
SWIDTH 540 0
DWIDTH 6 0
BBX 4 5 1 1
BITMAP
90
F0
60
F0
90
ENDCHAR
STARTCHAR 00D8
ENCODING 216
SWIDTH 720 0
DWIDTH 8 0
BBX 9 8 0 0
BITMAP
1D00
7F00
6700
CD80
D980
5100
7700
7E00
ENDCHAR
STARTCHAR 00D9
ENCODING 217
SWIDTH 540 0
DWIDTH 6 0
BBX 5 10 1 0
BITMAP
40
00
98
98
98
98
98
98
F0
F0
ENDCHAR
STARTCHAR 00DA
ENCODING 218
SWIDTH 540 0
DWIDTH 6 0
BBX 5 10 1 0
BITMAP
20
00
98
98
98
98
98
98
F0
F0
ENDCHAR
STARTCHAR 00DB
ENCODING 219
SWIDTH 540 0
DWIDTH 6 0
BBX 5 10 1 0
BITMAP
60
00
98
98
98
98
98
98
F0
F0
ENDCHAR
STARTCHAR 00DC
ENCODING 220
SWIDTH 540 0
DWIDTH 6 0
BBX 5 10 1 0
BITMAP
D0
90
98
98
98
98
98
98
F0
F0
ENDCHAR
STARTCHAR 00DD
ENCODING 221
SWIDTH 450 0
DWIDTH 5 0
BBX 5 10 0 0
BITMAP
10
00
C8
C8
C8
C8
48
78
30
30
ENDCHAR
STARTCHAR 00E0
ENCODING 224
SWIDTH 540 0
DWIDTH 6 0
BBX 5 10 1 0
BITMAP
40
00
70
F0
98
98
98
98
F8
F8
ENDCHAR
STARTCHAR 00E1
ENCODING 225
SWIDTH 540 0
DWIDTH 6 0
BBX 5 10 1 0
BITMAP
20
00
70
F0
98
98
98
98
F8
F8
ENDCHAR
STARTCHAR 00E2
ENCODING 226
SWIDTH 540 0
DWIDTH 6 0
BBX 5 10 1 0
BITMAP
60
00
70
F0
98
98
98
98
F8
F8
ENDCHAR
STARTCHAR 00E3
ENCODING 227
SWIDTH 540 0
DWIDTH 6 0
BBX 5 10 1 0
BITMAP
60
00
70
F0
98
98
98
98
F8
F8
ENDCHAR
STARTCHAR 00E4
ENCODING 228
SWIDTH 540 0
DWIDTH 6 0
BBX 5 10 1 0
BITMAP
D0
90
70
F0
98
98
98
98
F8
F8
ENDCHAR
STARTCHAR 00E5
ENCODING 229
SWIDTH 540 0
DWIDTH 6 0
BBX 5 11 1 0
BITMAP
60
60
20
70
F0
98
98
98
98
F8
F8
ENDCHAR
STARTCHAR 00E7
ENCODING 231
SWIDTH 630 0
DWIDTH 7 0
BBX 7 10 0 -2
BITMAP
1C
7E
60
C0
C0
40
76
3E
08
18
ENDCHAR
STARTCHAR 00E8
ENCODING 232
SWIDTH 450 0
DWIDTH 5 0
BBX 6 10 0 0
BITMAP
20
00
70
70
60
F8
F8
60
7C
7C
ENDCHAR
STARTCHAR 00E9
ENCODING 233
SWIDTH 450 0
DWIDTH 5 0
BBX 6 10 0 0
BITMAP
10
00
70
70
60
F8
F8
60
7C
7C
ENDCHAR
STARTCHAR 00EA
ENCODING 234
SWIDTH 450 0
DWIDTH 5 0
BBX 6 10 0 0
BITMAP
20
10
70
70
60
F8
F8
60
7C
7C
ENDCHAR
STARTCHAR 00EB
ENCODING 235
SWIDTH 450 0
DWIDTH 5 0
BBX 6 10 0 0
BITMAP
D8
58
70
70
60
F8
F8
60
7C
7C
ENDCHAR
STARTCHAR 00EC
ENCODING 236
SWIDTH 180 0
DWIDTH 2 0
BBX 2 7 0 0
BITMAP
80
00
40
40
40
40
40
ENDCHAR
STARTCHAR 00ED
ENCODING 237
SWIDTH 180 0
DWIDTH 2 0
BBX 2 7 1 0
BITMAP
C0
00
80
80
80
80
80
ENDCHAR
STARTCHAR 00EE
ENCODING 238
SWIDTH 180 0
DWIDTH 2 0
BBX 1 7 1 0
BITMAP
80
00
80
80
80
80
80
ENDCHAR
STARTCHAR 00EF
ENCODING 239
SWIDTH 180 0
DWIDTH 2 0
BBX 5 7 -1 0
BITMAP
D8
58
20
20
20
20
20
ENDCHAR
STARTCHAR 00F1
ENCODING 241
SWIDTH 540 0
DWIDTH 6 0
BBX 6 10 0 0
BITMAP
30
00
4C
EC
7C
7C
6C
6C
6C
6C
ENDCHAR
STARTCHAR 00F2
ENCODING 242
SWIDTH 810 0
DWIDTH 9 0
BBX 9 10 0 0
BITMAP
0800
0000
1E00
7F00
6100
C180
C180
4180
7700
3E00
ENDCHAR
STARTCHAR 00F3
ENCODING 243
SWIDTH 810 0
DWIDTH 9 0
BBX 9 10 0 0
BITMAP
0400
0000
1E00
7F00
6100
C180
C180
4180
7700
3E00
ENDCHAR
STARTCHAR 00F4
ENCODING 244
SWIDTH 810 0
DWIDTH 9 0
BBX 9 10 0 0
BITMAP
0800
0000
1E00
7F00
6100
C180
C180
4180
7700
3E00
ENDCHAR
STARTCHAR 00F5
ENCODING 245
SWIDTH 810 0
DWIDTH 9 0
BBX 9 10 0 0
BITMAP
1C00
0000
1E00
7F00
6100
C180
C180
4180
7700
3E00
ENDCHAR
STARTCHAR 00F6
ENCODING 246
SWIDTH 810 0
DWIDTH 9 0
BBX 9 10 0 0
BITMAP
3600
1600
1E00
7F00
6100
C180
C180
4180
7700
3E00
ENDCHAR
STARTCHAR 00F7
ENCODING 247
SWIDTH 540 0
DWIDTH 6 0
BBX 5 5 1 1
BITMAP
60
00
F8
00
60
ENDCHAR
STARTCHAR 00F8
ENCODING 248
SWIDTH 720 0
DWIDTH 8 0
BBX 9 8 0 0
BITMAP
1D00
7F00
6700
CD80
D980
5100
7700
7E00
ENDCHAR
STARTCHAR 00F9
ENCODING 249
SWIDTH 540 0
DWIDTH 6 0
BBX 5 10 1 0
BITMAP
40
00
98
98
98
98
98
98
F0
F0
ENDCHAR
STARTCHAR 00FA
ENCODING 250
SWIDTH 540 0
DWIDTH 6 0
BBX 5 10 1 0
BITMAP
20
00
98
98
98
98
98
98
F0
F0
ENDCHAR
STARTCHAR 00FB
ENCODING 251
SWIDTH 540 0
DWIDTH 6 0
BBX 5 10 1 0
BITMAP
60
00
98
98
98
98
98
98
F0
F0
ENDCHAR
STARTCHAR 00FC
ENCODING 252
SWIDTH 540 0
DWIDTH 6 0
BBX 5 10 1 0
BITMAP
D0
90
98
98
98
98
98
98
F0
F0
ENDCHAR
STARTCHAR 00FD
ENCODING 253
SWIDTH 450 0
DWIDTH 5 0
BBX 5 10 0 0
BITMAP
10
00
C8
C8
C8
C8
48
78
30
30
ENDCHAR
STARTCHAR 00FF
ENCODING 255
SWIDTH 450 0
DWIDTH 5 0
BBX 5 10 0 0
BITMAP
78
48
C8
C8
C8
C8
48
78
30
30
ENDCHAR
STARTCHAR 0100
ENCODING 256
SWIDTH 540 0
DWIDTH 6 0
BBX 5 10 1 0
BITMAP
F0
00
70
F0
98
98
98
98
F8
F8
ENDCHAR
STARTCHAR 0101
ENCODING 257
SWIDTH 540 0
DWIDTH 6 0
BBX 5 10 1 0
BITMAP
F0
00
70
F0
98
98
98
98
F8
F8
ENDCHAR
STARTCHAR 0102
ENCODING 258
SWIDTH 540 0
DWIDTH 6 0
BBX 5 10 1 0
BITMAP
60
00
70
F0
98
98
98
98
F8
F8
ENDCHAR
STARTCHAR 0103
ENCODING 259
SWIDTH 540 0
DWIDTH 6 0
BBX 5 10 1 0
BITMAP
60
00
70
F0
98
98
98
98
F8
F8
ENDCHAR
STARTCHAR 0104
ENCODING 260
SWIDTH 540 0
DWIDTH 6 0
BBX 6 10 1 -2
BITMAP
70
F0
98
98
98
98
F8
F8
10
1C
ENDCHAR
STARTCHAR 0105
ENCODING 261
SWIDTH 540 0
DWIDTH 6 0
BBX 6 10 1 -2
BITMAP
70
F0
98
98
98
98
F8
F8
10
1C
ENDCHAR
STARTCHAR 0106
ENCODING 262
SWIDTH 630 0
DWIDTH 7 0
BBX 7 10 0 0
BITMAP
0C
00
1C
7E
60
C0
C0
40
76
3E
ENDCHAR
STARTCHAR 0107
ENCODING 263
SWIDTH 630 0
DWIDTH 7 0
BBX 7 10 0 0
BITMAP
0C
00
1C
7E
60
C0
C0
40
76
3E
ENDCHAR
STARTCHAR 010A
ENCODING 266
SWIDTH 630 0
DWIDTH 7 0
BBX 7 10 0 0
BITMAP
0C
08
1C
7E
60
C0
C0
40
76
3E
ENDCHAR
STARTCHAR 010B
ENCODING 267
SWIDTH 630 0
DWIDTH 7 0
BBX 7 10 0 0
BITMAP
0C
08
1C
7E
60
C0
C0
40
76
3E
ENDCHAR
STARTCHAR 010C
ENCODING 268
SWIDTH 630 0
DWIDTH 7 0
BBX 7 10 0 0
BITMAP
1C
08
1C
7E
60
C0
C0
40
76
3E
ENDCHAR
STARTCHAR 010D
ENCODING 269
SWIDTH 630 0
DWIDTH 7 0
BBX 7 10 0 0
BITMAP
1C
08
1C
7E
60
C0
C0
40
76
3E
ENDCHAR
STARTCHAR 010E
ENCODING 270
SWIDTH 630 0
DWIDTH 7 0
BBX 6 10 1 0
BITMAP
60
00
F0
F8
8C
84
84
8C
FC
F0
ENDCHAR
STARTCHAR 010F
ENCODING 271
SWIDTH 630 0
DWIDTH 7 0
BBX 6 10 1 0
BITMAP
60
00
F0
F8
8C
84
84
8C
FC
F0
ENDCHAR
STARTCHAR 0110
ENCODING 272
SWIDTH 630 0
DWIDTH 7 0
BBX 8 8 0 0
BITMAP
78
7E
66
F3
F3
66
7E
7C
ENDCHAR
STARTCHAR 0111
ENCODING 273
SWIDTH 630 0
DWIDTH 7 0
BBX 8 8 0 0
BITMAP
78
7E
66
F3
F3
66
7E
7C
ENDCHAR
STARTCHAR 0112
ENCODING 274
SWIDTH 450 0
DWIDTH 5 0
BBX 6 10 0 0
BITMAP
70
00
70
70
60
F8
F8
60
7C
7C
ENDCHAR
STARTCHAR 0113
ENCODING 275
SWIDTH 450 0
DWIDTH 5 0
BBX 6 10 0 0
BITMAP
70
00
70
70
60
F8
F8
60
7C
7C
ENDCHAR
STARTCHAR 0116
ENCODING 278
SWIDTH 450 0
DWIDTH 5 0
BBX 6 10 0 0
BITMAP
30
20
70
70
60
F8
F8
60
7C
7C
ENDCHAR
STARTCHAR 0117
ENCODING 279
SWIDTH 450 0
DWIDTH 5 0
BBX 6 10 0 0
BITMAP
30
20
70
70
60
F8
F8
60
7C
7C
ENDCHAR
STARTCHAR 0118
ENCODING 280
SWIDTH 450 0
DWIDTH 5 0
BBX 6 10 0 -2
BITMAP
70
70
60
F8
F8
60
7C
7C
08
0C
ENDCHAR
STARTCHAR 0119
ENCODING 281
SWIDTH 450 0
DWIDTH 5 0
BBX 6 10 0 -2
BITMAP
70
70
60
F8
F8
60
7C
7C
08
0C
ENDCHAR
STARTCHAR 011A
ENCODING 282
SWIDTH 450 0
DWIDTH 5 0
BBX 6 10 0 0
BITMAP
30
00
70
70
60
F8
F8
60
7C
7C
ENDCHAR
STARTCHAR 011B
ENCODING 283
SWIDTH 450 0
DWIDTH 5 0
BBX 6 10 0 0
BITMAP
30
00
70
70
60
F8
F8
60
7C
7C
ENDCHAR
STARTCHAR 011E
ENCODING 286
SWIDTH 810 0
DWIDTH 9 0
BBX 9 10 0 0
BITMAP
1C00
0800
1C00
7E00
6000
CF80
CF80
4300
7700
3E00
ENDCHAR
STARTCHAR 011F
ENCODING 287
SWIDTH 810 0
DWIDTH 9 0
BBX 9 10 0 0
BITMAP
1C00
0800
1C00
7E00
6000
CF80
CF80
4300
7700
3E00
ENDCHAR
STARTCHAR 0120
ENCODING 288
SWIDTH 810 0
DWIDTH 9 0
BBX 9 10 0 0
BITMAP
0800
0800
1C00
7E00
6000
CF80
CF80
4300
7700
3E00
ENDCHAR
STARTCHAR 0121
ENCODING 289
SWIDTH 810 0
DWIDTH 9 0
BBX 9 10 0 0
BITMAP
0800
0800
1C00
7E00
6000
CF80
CF80
4300
7700
3E00
ENDCHAR
STARTCHAR 0124
ENCODING 292
SWIDTH 540 0
DWIDTH 6 0
BBX 6 10 0 0
BITMAP
10
00
6C
6C
6C
6C
FC
6C
6C
6C
ENDCHAR
STARTCHAR 0125
ENCODING 293
SWIDTH 540 0
DWIDTH 6 0
BBX 6 10 0 0
BITMAP
10
00
6C
6C
6C
6C
FC
6C
6C
6C
ENDCHAR
STARTCHAR 0128
ENCODING 296
SWIDTH 180 0
DWIDTH 2 0
BBX 3 7 0 0
BITMAP
E0
00
40
40
40
40
40
ENDCHAR
STARTCHAR 0129
ENCODING 297
SWIDTH 180 0
DWIDTH 2 0
BBX 3 7 0 0
BITMAP
E0
00
40
40
40
40
40
ENDCHAR
STARTCHAR 012A
ENCODING 298
SWIDTH 180 0
DWIDTH 2 0
BBX 3 7 0 0
BITMAP
E0
00
40
40
40
40
40
ENDCHAR
STARTCHAR 012B
ENCODING 299
SWIDTH 180 0
DWIDTH 2 0
BBX 3 7 0 0
BITMAP
E0
00
40
40
40
40
40
ENDCHAR
STARTCHAR 012E
ENCODING 302
SWIDTH 180 0
DWIDTH 2 0
BBX 3 11 0 -2
BITMAP
40
E0
40
00
40
40
40
40
40
80
E0
ENDCHAR
STARTCHAR 012F
ENCODING 303
SWIDTH 180 0
DWIDTH 2 0
BBX 3 11 0 -2
BITMAP
40
E0
40
00
40
40
40
40
40
80
E0
ENDCHAR
STARTCHAR 0130
ENCODING 304
SWIDTH 180 0
DWIDTH 2 0
BBX 1 7 1 0
BITMAP
80
80
80
80
80
80
80
ENDCHAR
STARTCHAR 0139
ENCODING 313
SWIDTH 450 0
DWIDTH 5 0
BBX 4 10 1 0
BITMAP
C0
00
80
80
80
80
80
80
F0
F0
ENDCHAR
STARTCHAR 013A
ENCODING 314
SWIDTH 450 0
DWIDTH 5 0
BBX 4 10 1 0
BITMAP
C0
00
80
80
80
80
80
80
F0
F0
ENDCHAR
STARTCHAR 013D
ENCODING 317
SWIDTH 450 0
DWIDTH 5 0
BBX 5 10 0 0
BITMAP
C0
40
40
40
40
40
40
40
78
78
ENDCHAR
STARTCHAR 013E
ENCODING 318
SWIDTH 450 0
DWIDTH 5 0
BBX 5 10 0 0
BITMAP
C0
40
40
40
40
40
40
40
78
78
ENDCHAR
STARTCHAR 0141
ENCODING 321
SWIDTH 450 0
DWIDTH 5 0
BBX 6 8 0 0
BITMAP
60
60
60
70
E0
60
7C
7C
ENDCHAR
STARTCHAR 0142
ENCODING 322
SWIDTH 450 0
DWIDTH 5 0
BBX 6 8 0 0
BITMAP
60
60
60
70
E0
60
7C
7C
ENDCHAR
STARTCHAR 0143
ENCODING 323
SWIDTH 540 0
DWIDTH 6 0
BBX 6 10 0 0
BITMAP
10
00
4C
EC
7C
7C
6C
6C
6C
6C
ENDCHAR
STARTCHAR 0144
ENCODING 324
SWIDTH 540 0
DWIDTH 6 0
BBX 6 10 0 0
BITMAP
10
00
4C
EC
7C
7C
6C
6C
6C
6C
ENDCHAR
STARTCHAR 0147
ENCODING 327
SWIDTH 540 0
DWIDTH 6 0
BBX 6 10 0 0
BITMAP
30
00
4C
EC
7C
7C
6C
6C
6C
6C
ENDCHAR
STARTCHAR 0148
ENCODING 328
SWIDTH 540 0
DWIDTH 6 0
BBX 6 10 0 0
BITMAP
30
00
4C
EC
7C
7C
6C
6C
6C
6C
ENDCHAR
STARTCHAR 014C
ENCODING 332
SWIDTH 810 0
DWIDTH 9 0
BBX 9 10 0 0
BITMAP
1C00
0000
1E00
7F00
6100
C180
C180
4180
7700
3E00
ENDCHAR
STARTCHAR 014D
ENCODING 333
SWIDTH 810 0
DWIDTH 9 0
BBX 9 10 0 0
BITMAP
1C00
0000
1E00
7F00
6100
C180
C180
4180
7700
3E00
ENDCHAR
STARTCHAR 0150
ENCODING 336
SWIDTH 810 0
DWIDTH 9 0
BBX 9 10 0 0
BITMAP
1C00
0000
1E00
7F00
6100
C180
C180
4180
7700
3E00
ENDCHAR
STARTCHAR 0151
ENCODING 337
SWIDTH 810 0
DWIDTH 9 0
BBX 9 10 0 0
BITMAP
1C00
0000
1E00
7F00
6100
C180
C180
4180
7700
3E00
ENDCHAR
STARTCHAR 0154
ENCODING 340
SWIDTH 540 0
DWIDTH 6 0
BBX 7 10 0 0
BITMAP
18
00
78
7C
66
6C
FC
6C
64
64
ENDCHAR
STARTCHAR 0155
ENCODING 341
SWIDTH 540 0
DWIDTH 6 0
BBX 7 10 0 0
BITMAP
18
00
78
7C
66
6C
FC
6C
64
64
ENDCHAR
STARTCHAR 0158
ENCODING 344
SWIDTH 540 0
DWIDTH 6 0
BBX 7 10 0 0
BITMAP
30
10
78
7C
66
6C
FC
6C
64
64
ENDCHAR
STARTCHAR 0159
ENCODING 345
SWIDTH 540 0
DWIDTH 6 0
BBX 7 10 0 0
BITMAP
30
10
78
7C
66
6C
FC
6C
64
64
ENDCHAR
STARTCHAR 015A
ENCODING 346
SWIDTH 450 0
DWIDTH 5 0
BBX 5 10 0 0
BITMAP
10
00
70
78
40
70
38
08
F8
78
ENDCHAR
STARTCHAR 015B
ENCODING 347
SWIDTH 450 0
DWIDTH 5 0
BBX 5 10 0 0
BITMAP
10
00
70
78
40
70
38
08
F8
78
ENDCHAR
STARTCHAR 015E
ENCODING 350
SWIDTH 450 0
DWIDTH 5 0
BBX 5 10 0 -2
BITMAP
70
78
40
70
38
08
F8
78
20
30
ENDCHAR
STARTCHAR 015F
ENCODING 351
SWIDTH 450 0
DWIDTH 5 0
BBX 5 10 0 -2
BITMAP
70
78
40
70
38
08
F8
78
20
30
ENDCHAR
STARTCHAR 0160
ENCODING 352
SWIDTH 450 0
DWIDTH 5 0
BBX 5 10 0 0
BITMAP
30
00
70
78
40
70
38
08
F8
78
ENDCHAR
STARTCHAR 0161
ENCODING 353
SWIDTH 450 0
DWIDTH 5 0
BBX 5 10 0 0
BITMAP
30
00
70
78
40
70
38
08
F8
78
ENDCHAR
STARTCHAR 0162
ENCODING 354
SWIDTH 450 0
DWIDTH 5 0
BBX 6 10 0 -2
BITMAP
FC
FC
30
30
30
30
30
30
20
30
ENDCHAR
STARTCHAR 0163
ENCODING 355
SWIDTH 450 0
DWIDTH 5 0
BBX 6 10 0 -2
BITMAP
FC
FC
30
30
30
30
30
30
20
30
ENDCHAR
STARTCHAR 0164
ENCODING 356
SWIDTH 450 0
DWIDTH 5 0
BBX 6 10 0 0
BITMAP
30
00
FC
FC
30
30
30
30
30
30
ENDCHAR
STARTCHAR 0165
ENCODING 357
SWIDTH 450 0
DWIDTH 5 0
BBX 6 10 0 0
BITMAP
30
00
FC
FC
30
30
30
30
30
30
ENDCHAR
STARTCHAR 0168
ENCODING 360
SWIDTH 540 0
DWIDTH 6 0
BBX 5 10 1 0
BITMAP
60
00
98
98
98
98
98
98
F0
F0
ENDCHAR
STARTCHAR 0169
ENCODING 361
SWIDTH 540 0
DWIDTH 6 0
BBX 5 10 1 0
BITMAP
60
00
98
98
98
98
98
98
F0
F0
ENDCHAR
STARTCHAR 016A
ENCODING 362
SWIDTH 540 0
DWIDTH 6 0
BBX 5 10 1 0
BITMAP
F0
00
98
98
98
98
98
98
F0
F0
ENDCHAR
STARTCHAR 016B
ENCODING 363
SWIDTH 540 0
DWIDTH 6 0
BBX 5 10 1 0
BITMAP
F0
00
98
98
98
98
98
98
F0
F0
ENDCHAR
STARTCHAR 016E
ENCODING 366
SWIDTH 540 0
DWIDTH 6 0
BBX 5 11 1 0
BITMAP
60
60
20
98
98
98
98
98
98
F0
F0
ENDCHAR
STARTCHAR 016F
ENCODING 367
SWIDTH 540 0
DWIDTH 6 0
BBX 5 11 1 0
BITMAP
60
60
20
98
98
98
98
98
98
F0
F0
ENDCHAR
STARTCHAR 0170
ENCODING 368
SWIDTH 540 0
DWIDTH 6 0
BBX 5 10 1 0
BITMAP
50
00
98
98
98
98
98
98
F0
F0
ENDCHAR
STARTCHAR 0171
ENCODING 369
SWIDTH 540 0
DWIDTH 6 0
BBX 5 10 1 0
BITMAP
50
00
98
98
98
98
98
98
F0
F0
ENDCHAR
STARTCHAR 0172
ENCODING 370
SWIDTH 540 0
DWIDTH 6 0
BBX 5 10 1 -2
BITMAP
98
98
98
98
98
98
F0
F0
40
60
ENDCHAR
STARTCHAR 0173
ENCODING 371
SWIDTH 540 0
DWIDTH 6 0
BBX 5 10 1 -2
BITMAP
98
98
98
98
98
98
F0
F0
40
60
ENDCHAR
STARTCHAR 0176
ENCODING 374
SWIDTH 450 0
DWIDTH 5 0
BBX 5 10 0 0
BITMAP
30
00
C8
C8
C8
C8
48
78
30
30
ENDCHAR
STARTCHAR 0177
ENCODING 375
SWIDTH 450 0
DWIDTH 5 0
BBX 5 10 0 0
BITMAP
30
00
C8
C8
C8
C8
48
78
30
30
ENDCHAR
STARTCHAR 0178
ENCODING 376
SWIDTH 450 0
DWIDTH 5 0
BBX 5 10 0 0
BITMAP
78
48
C8
C8
C8
C8
48
78
30
30
ENDCHAR
STARTCHAR 0179
ENCODING 377
SWIDTH 540 0
DWIDTH 6 0
BBX 6 10 0 0
BITMAP
10
00
FC
F8
18
30
30
60
7C
FC
ENDCHAR
STARTCHAR 017A
ENCODING 378
SWIDTH 540 0
DWIDTH 6 0
BBX 6 10 0 0
BITMAP
10
00
FC
F8
18
30
30
60
7C
FC
ENDCHAR
STARTCHAR 017B
ENCODING 379
SWIDTH 540 0
DWIDTH 6 0
BBX 6 10 0 0
BITMAP
30
00
FC
F8
18
30
30
60
7C
FC
ENDCHAR
STARTCHAR 017C
ENCODING 380
SWIDTH 540 0
DWIDTH 6 0
BBX 6 10 0 0
BITMAP
30
00
FC
F8
18
30
30
60
7C
FC
ENDCHAR
STARTCHAR 017D
ENCODING 381
SWIDTH 540 0
DWIDTH 6 0
BBX 6 10 0 0
BITMAP
30
00
FC
F8
18
30
30
60
7C
FC
ENDCHAR
STARTCHAR 017E
ENCODING 382
SWIDTH 540 0
DWIDTH 6 0
BBX 6 10 0 0
BITMAP
30
00
FC
F8
18
30
30
60
7C
FC
ENDCHAR
STARTCHAR 01A0
ENCODING 416
SWIDTH 810 0
DWIDTH 9 0
BBX 9 9 0 0
BITMAP
0100
1F00
7F00
6100
C180
C180
4180
7700
3E00
ENDCHAR
STARTCHAR 01A1
ENCODING 417
SWIDTH 810 0
DWIDTH 9 0
BBX 9 9 0 0
BITMAP
0100
1F00
7F00
6100
C180
C180
4180
7700
3E00
ENDCHAR
STARTCHAR 01AF
ENCODING 431
SWIDTH 540 0
DWIDTH 6 0
BBX 6 9 1 0
BITMAP
04
9C
98
98
98
98
98
F0
F0
ENDCHAR
STARTCHAR 01B0
ENCODING 432
SWIDTH 540 0
DWIDTH 6 0
BBX 6 9 1 0
BITMAP
04
9C
98
98
98
98
98
F0
F0
ENDCHAR
STARTCHAR 01CD
ENCODING 461
SWIDTH 540 0
DWIDTH 6 0
BBX 5 10 1 0
BITMAP
60
00
70
F0
98
98
98
98
F8
F8
ENDCHAR
STARTCHAR 01CE
ENCODING 462
SWIDTH 540 0
DWIDTH 6 0
BBX 5 10 1 0
BITMAP
60
00
70
F0
98
98
98
98
F8
F8
ENDCHAR
STARTCHAR 01CF
ENCODING 463
SWIDTH 180 0
DWIDTH 2 0
BBX 2 7 0 0
BITMAP
C0
40
40
40
40
40
40
ENDCHAR
STARTCHAR 01D0
ENCODING 464
SWIDTH 180 0
DWIDTH 2 0
BBX 2 7 0 0
BITMAP
C0
40
40
40
40
40
40
ENDCHAR
STARTCHAR 01D1
ENCODING 465
SWIDTH 810 0
DWIDTH 9 0
BBX 9 10 0 0
BITMAP
0C00
0800
1E00
7F00
6100
C180
C180
4180
7700
3E00
ENDCHAR
STARTCHAR 01D2
ENCODING 466
SWIDTH 810 0
DWIDTH 9 0
BBX 9 10 0 0
BITMAP
0C00
0800
1E00
7F00
6100
C180
C180
4180
7700
3E00
ENDCHAR
STARTCHAR 01D3
ENCODING 467
SWIDTH 540 0
DWIDTH 6 0
BBX 5 10 1 0
BITMAP
60
00
98
98
98
98
98
98
F0
F0
ENDCHAR
STARTCHAR 01D4
ENCODING 468
SWIDTH 540 0
DWIDTH 6 0
BBX 5 10 1 0
BITMAP
60
00
98
98
98
98
98
98
F0
F0
ENDCHAR
STARTCHAR 02C6
ENCODING 710
SWIDTH 270 0
DWIDTH 3 0
BBX 2 1 0 9
BITMAP
C0
ENDCHAR
STARTCHAR 02C7
ENCODING 711
SWIDTH 180 0
DWIDTH 2 0
BBX 2 2 0 8
BITMAP
C0
40
ENDCHAR
STARTCHAR 02D8
ENCODING 728
SWIDTH 270 0
DWIDTH 3 0
BBX 2 2 0 8
BITMAP
C0
40
ENDCHAR
STARTCHAR 02D9
ENCODING 729
SWIDTH 90 0
DWIDTH 1 0
BBX 2 1 0 8
BITMAP
C0
ENDCHAR
STARTCHAR 02DA
ENCODING 730
SWIDTH 180 0
DWIDTH 2 0
BBX 2 3 0 8
BITMAP
40
C0
40
ENDCHAR
STARTCHAR 02DB
ENCODING 731
SWIDTH 180 0
DWIDTH 2 0
BBX 2 2 0 -2
BITMAP
80
C0
ENDCHAR
STARTCHAR 02DC
ENCODING 732
SWIDTH 180 0
DWIDTH 2 0
BBX 3 1 0 9
BITMAP
E0
ENDCHAR
STARTCHAR 02DD
ENCODING 733
SWIDTH 270 0
DWIDTH 3 0
BBX 3 1 0 9
BITMAP
E0
ENDCHAR
STARTCHAR 0300
ENCODING 768
SWIDTH 0 0
DWIDTH 0 0
BBX 2 1 -2 9
BITMAP
C0
ENDCHAR
STARTCHAR 0301
ENCODING 769
SWIDTH 0 0
DWIDTH 0 0
BBX 1 1 -1 9
BITMAP
80
ENDCHAR
STARTCHAR 0302
ENCODING 770
SWIDTH 0 0
DWIDTH 0 0
BBX 2 1 -2 9
BITMAP
C0
ENDCHAR
STARTCHAR 0303
ENCODING 771
SWIDTH 0 0
DWIDTH 0 0
BBX 3 1 -3 9
BITMAP
E0
ENDCHAR
STARTCHAR 0304
ENCODING 772
SWIDTH 0 0
DWIDTH 0 0
BBX 3 1 -3 9
BITMAP
E0
ENDCHAR
STARTCHAR 0306
ENCODING 774
SWIDTH 0 0
DWIDTH 0 0
BBX 2 2 -2 8
BITMAP
C0
80
ENDCHAR
STARTCHAR 0307
ENCODING 775
SWIDTH 0 0
DWIDTH 0 0
BBX 2 1 -2 8
BITMAP
C0
ENDCHAR
STARTCHAR 0308
ENCODING 776
SWIDTH 0 0
DWIDTH 0 0
BBX 5 2 -5 8
BITMAP
D8
58
ENDCHAR
STARTCHAR 0309
ENCODING 777
SWIDTH 0 0
DWIDTH 0 0
BBX 1 3 -1 8
BITMAP
80
80
80
ENDCHAR
STARTCHAR 030A
ENCODING 778
SWIDTH 0 0
DWIDTH 0 0
BBX 2 3 -2 8
BITMAP
C0
C0
80
ENDCHAR
STARTCHAR 030B
ENCODING 779
SWIDTH 0 0
DWIDTH 0 0
BBX 3 1 -3 9
BITMAP
A0
ENDCHAR
STARTCHAR 030C
ENCODING 780
SWIDTH 0 0
DWIDTH 0 0
BBX 2 2 -2 8
BITMAP
C0
80
ENDCHAR
STARTCHAR 031B
ENCODING 795
SWIDTH 0 0
DWIDTH 0 0
BBX 1 2 -1 7
BITMAP
80
80
ENDCHAR
STARTCHAR 0323
ENCODING 803
SWIDTH 0 0
DWIDTH 0 0
BBX 2 2 -2 -3
BITMAP
C0
C0
ENDCHAR
STARTCHAR 0326
ENCODING 806
SWIDTH 0 0
DWIDTH 0 0
BBX 2 1 -2 -2
BITMAP
C0
ENDCHAR
STARTCHAR 0327
ENCODING 807
SWIDTH 0 0
DWIDTH 0 0
BBX 2 2 -2 -2
BITMAP
80
C0
ENDCHAR
STARTCHAR 0328
ENCODING 808
SWIDTH 0 0
DWIDTH 0 0
BBX 3 2 -3 -2
BITMAP
C0
E0
ENDCHAR
STARTCHAR 0335
ENCODING 821
SWIDTH 0 0
DWIDTH 0 0
BBX 4 1 -4 2
BITMAP
F0
ENDCHAR
STARTCHAR 1EA0
ENCODING 7840
SWIDTH 540 0
DWIDTH 6 0
BBX 5 11 1 -3
BITMAP
70
F0
98
98
98
98
F8
F8
00
60
60
ENDCHAR
STARTCHAR 1EA1
ENCODING 7841
SWIDTH 540 0
DWIDTH 6 0
BBX 5 11 1 -3
BITMAP
70
F0
98
98
98
98
F8
F8
00
60
60
ENDCHAR
STARTCHAR 1EA2
ENCODING 7842
SWIDTH 540 0
DWIDTH 6 0
BBX 5 11 1 0
BITMAP
20
40
00
70
F0
98
98
98
98
F8
F8
ENDCHAR
STARTCHAR 1EA3
ENCODING 7843
SWIDTH 540 0
DWIDTH 6 0
BBX 5 11 1 0
BITMAP
20
40
00
70
F0
98
98
98
98
F8
F8
ENDCHAR
STARTCHAR 1EA4
ENCODING 7844
SWIDTH 540 0
DWIDTH 6 0
BBX 5 11 1 0
BITMAP
08
70
00
70
F0
98
98
98
98
F8
F8
ENDCHAR
STARTCHAR 1EA5
ENCODING 7845
SWIDTH 540 0
DWIDTH 6 0
BBX 5 11 1 0
BITMAP
08
70
00
70
F0
98
98
98
98
F8
F8
ENDCHAR
STARTCHAR 1EA6
ENCODING 7846
SWIDTH 540 0
DWIDTH 6 0
BBX 6 11 0 0
BITMAP
80
70
00
38
78
4C
4C
4C
4C
7C
7C
ENDCHAR
STARTCHAR 1EA7
ENCODING 7847
SWIDTH 540 0
DWIDTH 6 0
BBX 6 11 0 0
BITMAP
80
70
00
38
78
4C
4C
4C
4C
7C
7C
ENDCHAR
STARTCHAR 1EA8
ENCODING 7848
SWIDTH 540 0
DWIDTH 6 0
BBX 5 11 1 0
BITMAP
10
70
00
70
F0
98
98
98
98
F8
F8
ENDCHAR
STARTCHAR 1EA9
ENCODING 7849
SWIDTH 540 0
DWIDTH 6 0
BBX 5 11 1 0
BITMAP
10
70
00
70
F0
98
98
98
98
F8
F8
ENDCHAR
STARTCHAR 1EAA
ENCODING 7850
SWIDTH 540 0
DWIDTH 6 0
BBX 6 11 1 0
BITMAP
1C
60
00
70
F0
98
98
98
98
F8
F8
ENDCHAR
STARTCHAR 1EAB
ENCODING 7851
SWIDTH 540 0
DWIDTH 6 0
BBX 6 11 1 0
BITMAP
1C
60
00
70
F0
98
98
98
98
F8
F8
ENDCHAR
STARTCHAR 1EAC
ENCODING 7852
SWIDTH 540 0
DWIDTH 6 0
BBX 5 13 1 -3
BITMAP
60
00
70
F0
98
98
98
98
F8
F8
00
60
60
ENDCHAR
STARTCHAR 1EAD
ENCODING 7853
SWIDTH 540 0
DWIDTH 6 0
BBX 5 13 1 -3
BITMAP
60
00
70
F0
98
98
98
98
F8
F8
00
60
60
ENDCHAR
STARTCHAR 1EAE
ENCODING 7854
SWIDTH 540 0
DWIDTH 6 0
BBX 5 11 1 0
BITMAP
08
68
00
70
F0
98
98
98
98
F8
F8
ENDCHAR
STARTCHAR 1EAF
ENCODING 7855
SWIDTH 540 0
DWIDTH 6 0
BBX 5 11 1 0
BITMAP
08
68
00
70
F0
98
98
98
98
F8
F8
ENDCHAR
STARTCHAR 1EB0
ENCODING 7856
SWIDTH 540 0
DWIDTH 6 0
BBX 6 11 0 0
BITMAP
80
70
00
38
78
4C
4C
4C
4C
7C
7C
ENDCHAR
STARTCHAR 1EB1
ENCODING 7857
SWIDTH 540 0
DWIDTH 6 0
BBX 6 11 0 0
BITMAP
80
70
00
38
78
4C
4C
4C
4C
7C
7C
ENDCHAR
STARTCHAR 1EB2
ENCODING 7858
SWIDTH 540 0
DWIDTH 6 0
BBX 5 11 1 0
BITMAP
08
68
00
70
F0
98
98
98
98
F8
F8
ENDCHAR
STARTCHAR 1EB3
ENCODING 7859
SWIDTH 540 0
DWIDTH 6 0
BBX 5 11 1 0
BITMAP
08
68
00
70
F0
98
98
98
98
F8
F8
ENDCHAR
STARTCHAR 1EB4
ENCODING 7860
SWIDTH 540 0
DWIDTH 6 0
BBX 5 11 1 0
BITMAP
30
60
00
70
F0
98
98
98
98
F8
F8
ENDCHAR
STARTCHAR 1EB5
ENCODING 7861
SWIDTH 540 0
DWIDTH 6 0
BBX 5 11 1 0
BITMAP
30
60
00
70
F0
98
98
98
98
F8
F8
ENDCHAR
STARTCHAR 1EB6
ENCODING 7862
SWIDTH 540 0
DWIDTH 6 0
BBX 5 13 1 -3
BITMAP
60
00
70
F0
98
98
98
98
F8
F8
00
60
60
ENDCHAR
STARTCHAR 1EB7
ENCODING 7863
SWIDTH 540 0
DWIDTH 6 0
BBX 5 13 1 -3
BITMAP
60
00
70
F0
98
98
98
98
F8
F8
00
60
60
ENDCHAR
STARTCHAR 1EB8
ENCODING 7864
SWIDTH 450 0
DWIDTH 5 0
BBX 6 11 0 -3
BITMAP
70
70
60
F8
F8
60
7C
7C
00
10
10
ENDCHAR
STARTCHAR 1EB9
ENCODING 7865
SWIDTH 450 0
DWIDTH 5 0
BBX 6 11 0 -3
BITMAP
70
70
60
F8
F8
60
7C
7C
00
10
10
ENDCHAR
STARTCHAR 1EBA
ENCODING 7866
SWIDTH 450 0
DWIDTH 5 0
BBX 6 11 0 0
BITMAP
20
20
20
70
70
60
F8
F8
60
7C
7C
ENDCHAR
STARTCHAR 1EBB
ENCODING 7867
SWIDTH 450 0
DWIDTH 5 0
BBX 6 11 0 0
BITMAP
20
20
20
70
70
60
F8
F8
60
7C
7C
ENDCHAR
STARTCHAR 1EBC
ENCODING 7868
SWIDTH 450 0
DWIDTH 5 0
BBX 6 10 0 0
BITMAP
70
00
70
70
60
F8
F8
60
7C
7C
ENDCHAR
STARTCHAR 1EBD
ENCODING 7869
SWIDTH 450 0
DWIDTH 5 0
BBX 6 10 0 0
BITMAP
70
00
70
70
60
F8
F8
60
7C
7C
ENDCHAR
STARTCHAR 1EBE
ENCODING 7870
SWIDTH 450 0
DWIDTH 5 0
BBX 6 11 0 0
BITMAP
08
28
10
70
70
60
F8
F8
60
7C
7C
ENDCHAR
STARTCHAR 1EBF
ENCODING 7871
SWIDTH 450 0
DWIDTH 5 0
BBX 6 11 0 0
BITMAP
08
28
10
70
70
60
F8
F8
60
7C
7C
ENDCHAR
STARTCHAR 1EC0
ENCODING 7872
SWIDTH 450 0
DWIDTH 5 0
BBX 6 11 0 0
BITMAP
80
20
10
70
70
60
F8
F8
60
7C
7C
ENDCHAR
STARTCHAR 1EC1
ENCODING 7873
SWIDTH 450 0
DWIDTH 5 0
BBX 6 11 0 0
BITMAP
80
20
10
70
70
60
F8
F8
60
7C
7C
ENDCHAR
STARTCHAR 1EC2
ENCODING 7874
SWIDTH 450 0
DWIDTH 5 0
BBX 6 11 0 0
BITMAP
08
28
10
70
70
60
F8
F8
60
7C
7C
ENDCHAR
STARTCHAR 1EC3
ENCODING 7875
SWIDTH 450 0
DWIDTH 5 0
BBX 6 11 0 0
BITMAP
08
28
10
70
70
60
F8
F8
60
7C
7C
ENDCHAR
STARTCHAR 1EC4
ENCODING 7876
SWIDTH 450 0
DWIDTH 5 0
BBX 6 11 0 0
BITMAP
08
24
10
70
70
60
F8
F8
60
7C
7C
ENDCHAR
STARTCHAR 1EC5
ENCODING 7877
SWIDTH 450 0
DWIDTH 5 0
BBX 6 11 0 0
BITMAP
08
24
10
70
70
60
F8
F8
60
7C
7C
ENDCHAR
STARTCHAR 1EC6
ENCODING 7878
SWIDTH 450 0
DWIDTH 5 0
BBX 6 13 0 -3
BITMAP
20
10
70
70
60
F8
F8
60
7C
7C
00
10
10
ENDCHAR
STARTCHAR 1EC7
ENCODING 7879
SWIDTH 450 0
DWIDTH 5 0
BBX 6 13 0 -3
BITMAP
20
10
70
70
60
F8
F8
60
7C
7C
00
10
10
ENDCHAR
STARTCHAR 1EC8
ENCODING 7880
SWIDTH 180 0
DWIDTH 2 0
BBX 1 8 1 0
BITMAP
80
80
80
80
80
80
80
80
ENDCHAR
STARTCHAR 1EC9
ENCODING 7881
SWIDTH 180 0
DWIDTH 2 0
BBX 1 8 1 0
BITMAP
80
80
80
80
80
80
80
80
ENDCHAR
STARTCHAR 1ECA
ENCODING 7882
SWIDTH 180 0
DWIDTH 2 0
BBX 3 12 0 -3
BITMAP
40
E0
40
00
40
40
40
40
40
00
40
40
ENDCHAR
STARTCHAR 1ECB
ENCODING 7883
SWIDTH 180 0
DWIDTH 2 0
BBX 3 12 0 -3
BITMAP
40
E0
40
00
40
40
40
40
40
00
40
40
ENDCHAR
STARTCHAR 1ECC
ENCODING 7884
SWIDTH 810 0
DWIDTH 9 0
BBX 9 11 0 -3
BITMAP
1E00
7F00
6100
C180
C180
4180
7700
3E00
0000
0800
0800
ENDCHAR
STARTCHAR 1ECD
ENCODING 7885
SWIDTH 810 0
DWIDTH 9 0
BBX 9 11 0 -3
BITMAP
1E00
7F00
6100
C180
C180
4180
7700
3E00
0000
0800
0800
ENDCHAR
STARTCHAR 1ECE
ENCODING 7886
SWIDTH 810 0
DWIDTH 9 0
BBX 9 11 0 0
BITMAP
0800
0800
0800
1E00
7F00
6100
C180
C180
4180
7700
3E00
ENDCHAR
STARTCHAR 1ECF
ENCODING 7887
SWIDTH 810 0
DWIDTH 9 0
BBX 9 11 0 0
BITMAP
0800
0800
0800
1E00
7F00
6100
C180
C180
4180
7700
3E00
ENDCHAR
STARTCHAR 1ED0
ENCODING 7888
SWIDTH 810 0
DWIDTH 9 0
BBX 9 11 0 0
BITMAP
0200
0A00
0000
1E00
7F00
6100
C180
C180
4180
7700
3E00
ENDCHAR
STARTCHAR 1ED1
ENCODING 7889
SWIDTH 810 0
DWIDTH 9 0
BBX 9 11 0 0
BITMAP
0200
0A00
0000
1E00
7F00
6100
C180
C180
4180
7700
3E00
ENDCHAR
STARTCHAR 1ED2
ENCODING 7890
SWIDTH 810 0
DWIDTH 9 0
BBX 9 11 0 0
BITMAP
2000
2800
0000
1E00
7F00
6100
C180
C180
4180
7700
3E00
ENDCHAR
STARTCHAR 1ED3
ENCODING 7891
SWIDTH 810 0
DWIDTH 9 0
BBX 9 11 0 0
BITMAP
2000
2800
0000
1E00
7F00
6100
C180
C180
4180
7700
3E00
ENDCHAR
STARTCHAR 1ED4
ENCODING 7892
SWIDTH 810 0
DWIDTH 9 0
BBX 9 11 0 0
BITMAP
0200
0A00
0000
1E00
7F00
6100
C180
C180
4180
7700
3E00
ENDCHAR
STARTCHAR 1ED5
ENCODING 7893
SWIDTH 810 0
DWIDTH 9 0
BBX 9 11 0 0
BITMAP
0200
0A00
0000
1E00
7F00
6100
C180
C180
4180
7700
3E00
ENDCHAR
STARTCHAR 1ED6
ENCODING 7894
SWIDTH 810 0
DWIDTH 9 0
BBX 9 11 0 0
BITMAP
0200
0900
0000
1E00
7F00
6100
C180
C180
4180
7700
3E00
ENDCHAR
STARTCHAR 1ED7
ENCODING 7895
SWIDTH 810 0
DWIDTH 9 0
BBX 9 11 0 0
BITMAP
0200
0900
0000
1E00
7F00
6100
C180
C180
4180
7700
3E00
ENDCHAR
STARTCHAR 1ED8
ENCODING 7896
SWIDTH 810 0
DWIDTH 9 0
BBX 9 13 0 -3
BITMAP
0800
0000
1E00
7F00
6100
C180
C180
4180
7700
3E00
0000
0800
0800
ENDCHAR
STARTCHAR 1ED9
ENCODING 7897
SWIDTH 810 0
DWIDTH 9 0
BBX 9 13 0 -3
BITMAP
0800
0000
1E00
7F00
6100
C180
C180
4180
7700
3E00
0000
0800
0800
ENDCHAR
STARTCHAR 1EDA
ENCODING 7898
SWIDTH 810 0
DWIDTH 9 0
BBX 9 10 0 0
BITMAP
0400
0100
1F00
7F00
6100
C180
C180
4180
7700
3E00
ENDCHAR
STARTCHAR 1EDB
ENCODING 7899
SWIDTH 810 0
DWIDTH 9 0
BBX 9 10 0 0
BITMAP
0400
0100
1F00
7F00
6100
C180
C180
4180
7700
3E00
ENDCHAR
STARTCHAR 1EDC
ENCODING 7900
SWIDTH 810 0
DWIDTH 9 0
BBX 9 10 0 0
BITMAP
0800
0100
1F00
7F00
6100
C180
C180
4180
7700
3E00
ENDCHAR
STARTCHAR 1EDD
ENCODING 7901
SWIDTH 810 0
DWIDTH 9 0
BBX 9 10 0 0
BITMAP
0800
0100
1F00
7F00
6100
C180
C180
4180
7700
3E00
ENDCHAR
STARTCHAR 1EDE
ENCODING 7902
SWIDTH 810 0
DWIDTH 9 0
BBX 9 11 0 0
BITMAP
0800
0800
0900
1F00
7F00
6100
C180
C180
4180
7700
3E00
ENDCHAR
STARTCHAR 1EDF
ENCODING 7903
SWIDTH 810 0
DWIDTH 9 0
BBX 9 11 0 0
BITMAP
0800
0800
0900
1F00
7F00
6100
C180
C180
4180
7700
3E00
ENDCHAR
STARTCHAR 1EE0
ENCODING 7904
SWIDTH 810 0
DWIDTH 9 0
BBX 9 10 0 0
BITMAP
1C00
0100
1F00
7F00
6100
C180
C180
4180
7700
3E00
ENDCHAR
STARTCHAR 1EE1
ENCODING 7905
SWIDTH 810 0
DWIDTH 9 0
BBX 9 10 0 0
BITMAP
1C00
0100
1F00
7F00
6100
C180
C180
4180
7700
3E00
ENDCHAR
STARTCHAR 1EE2
ENCODING 7906
SWIDTH 810 0
DWIDTH 9 0
BBX 9 12 0 -3
BITMAP
0100
1F00
7F00
6100
C180
C180
4180
7700
3E00
0000
0800
0800
ENDCHAR
STARTCHAR 1EE3
ENCODING 7907
SWIDTH 810 0
DWIDTH 9 0
BBX 9 12 0 -3
BITMAP
0100
1F00
7F00
6100
C180
C180
4180
7700
3E00
0000
0800
0800
ENDCHAR
STARTCHAR 1EE4
ENCODING 7908
SWIDTH 540 0
DWIDTH 6 0
BBX 5 11 1 -3
BITMAP
98
98
98
98
98
98
F0
F0
00
60
60
ENDCHAR
STARTCHAR 1EE5
ENCODING 7909
SWIDTH 540 0
DWIDTH 6 0
BBX 5 11 1 -3
BITMAP
98
98
98
98
98
98
F0
F0
00
60
60
ENDCHAR
STARTCHAR 1EE6
ENCODING 7910
SWIDTH 540 0
DWIDTH 6 0
BBX 5 10 1 1
BITMAP
40
00
98
98
98
98
98
98
F0
F0
ENDCHAR
STARTCHAR 1EE7
ENCODING 7911
SWIDTH 540 0
DWIDTH 6 0
BBX 5 10 1 1
BITMAP
40
00
98
98
98
98
98
98
F0
F0
ENDCHAR
STARTCHAR 1EE8
ENCODING 7912
SWIDTH 540 0
DWIDTH 6 0
BBX 6 10 1 0
BITMAP
20
04
9C
98
98
98
98
98
F0
F0
ENDCHAR
STARTCHAR 1EE9
ENCODING 7913
SWIDTH 540 0
DWIDTH 6 0
BBX 6 10 1 0
BITMAP
20
04
9C
98
98
98
98
98
F0
F0
ENDCHAR
STARTCHAR 1EEA
ENCODING 7914
SWIDTH 540 0
DWIDTH 6 0
BBX 6 10 1 0
BITMAP
40
04
9C
98
98
98
98
98
F0
F0
ENDCHAR
STARTCHAR 1EEB
ENCODING 7915
SWIDTH 540 0
DWIDTH 6 0
BBX 6 10 1 0
BITMAP
40
04
9C
98
98
98
98
98
F0
F0
ENDCHAR
STARTCHAR 1EEC
ENCODING 7916
SWIDTH 540 0
DWIDTH 6 0
BBX 6 10 1 1
BITMAP
40
04
9C
98
98
98
98
98
F0
F0
ENDCHAR
STARTCHAR 1EED
ENCODING 7917
SWIDTH 540 0
DWIDTH 6 0
BBX 6 10 1 1
BITMAP
40
04
9C
98
98
98
98
98
F0
F0
ENDCHAR
STARTCHAR 1EEE
ENCODING 7918
SWIDTH 540 0
DWIDTH 6 0
BBX 6 10 1 0
BITMAP
60
04
9C
98
98
98
98
98
F0
F0
ENDCHAR
STARTCHAR 1EEF
ENCODING 7919
SWIDTH 540 0
DWIDTH 6 0
BBX 6 10 1 0
BITMAP
60
04
9C
98
98
98
98
98
F0
F0
ENDCHAR
STARTCHAR 1EF0
ENCODING 7920
SWIDTH 540 0
DWIDTH 6 0
BBX 6 12 1 -3
BITMAP
04
9C
98
98
98
98
98
F0
F0
00
60
60
ENDCHAR
STARTCHAR 1EF1
ENCODING 7921
SWIDTH 540 0
DWIDTH 6 0
BBX 6 12 1 -3
BITMAP
04
9C
98
98
98
98
98
F0
F0
00
60
60
ENDCHAR
STARTCHAR 1EF2
ENCODING 7922
SWIDTH 450 0
DWIDTH 5 0
BBX 5 10 0 0
BITMAP
20
00
C8
C8
C8
C8
48
78
30
30
ENDCHAR
STARTCHAR 1EF3
ENCODING 7923
SWIDTH 450 0
DWIDTH 5 0
BBX 5 10 0 0
BITMAP
20
00
C8
C8
C8
C8
48
78
30
30
ENDCHAR
STARTCHAR 1EF4
ENCODING 7924
SWIDTH 450 0
DWIDTH 5 0
BBX 5 11 0 -3
BITMAP
C8
C8
C8
C8
48
78
30
30
00
30
30
ENDCHAR
STARTCHAR 1EF5
ENCODING 7925
SWIDTH 450 0
DWIDTH 5 0
BBX 5 11 0 -3
BITMAP
C8
C8
C8
C8
48
78
30
30
00
30
30
ENDCHAR
STARTCHAR 1EF6
ENCODING 7926
SWIDTH 450 0
DWIDTH 5 0
BBX 5 11 0 0
BITMAP
20
20
20
C8
C8
C8
C8
48
78
30
30
ENDCHAR
STARTCHAR 1EF7
ENCODING 7927
SWIDTH 450 0
DWIDTH 5 0
BBX 5 11 0 0
BITMAP
20
20
20
C8
C8
C8
C8
48
78
30
30
ENDCHAR
STARTCHAR 1EF8
ENCODING 7928
SWIDTH 450 0
DWIDTH 5 0
BBX 5 10 0 0
BITMAP
70
00
C8
C8
C8
C8
48
78
30
30
ENDCHAR
STARTCHAR 1EF9
ENCODING 7929
SWIDTH 450 0
DWIDTH 5 0
BBX 5 10 0 0
BITMAP
70
00
C8
C8
C8
C8
48
78
30
30
ENDCHAR
STARTCHAR 2013
ENCODING 8211
SWIDTH 540 0
DWIDTH 6 0
BBX 5 1 1 2
BITMAP
F8
ENDCHAR
STARTCHAR 2014
ENCODING 8212
SWIDTH 810 0
DWIDTH 9 0
BBX 8 1 1 2
BITMAP
FF
ENDCHAR
STARTCHAR 2018
ENCODING 8216
SWIDTH 180 0
DWIDTH 2 0
BBX 1 2 1 6
BITMAP
80
80
ENDCHAR
STARTCHAR 2019
ENCODING 8217
SWIDTH 180 0
DWIDTH 2 0
BBX 1 2 1 6
BITMAP
80
80
ENDCHAR
STARTCHAR 201A
ENCODING 8218
SWIDTH 180 0
DWIDTH 2 0
BBX 1 2 1 -1
BITMAP
80
80
ENDCHAR
STARTCHAR 201C
ENCODING 8220
SWIDTH 450 0
DWIDTH 5 0
BBX 3 2 1 6
BITMAP
A0
A0
ENDCHAR
STARTCHAR 201D
ENCODING 8221
SWIDTH 450 0
DWIDTH 5 0
BBX 3 2 1 6
BITMAP
A0
A0
ENDCHAR
STARTCHAR 201E
ENCODING 8222
SWIDTH 450 0
DWIDTH 5 0
BBX 3 2 1 -1
BITMAP
A0
A0
ENDCHAR
STARTCHAR 2020
ENCODING 8224
SWIDTH 360 0
DWIDTH 4 0
BBX 3 6 1 2
BITMAP
40
E0
40
40
40
40
ENDCHAR
STARTCHAR 2021
ENCODING 8225
SWIDTH 360 0
DWIDTH 4 0
BBX 3 6 1 2
BITMAP
40
E0
40
E0
E0
40
ENDCHAR
STARTCHAR 2022
ENCODING 8226
SWIDTH 270 0
DWIDTH 3 0
BBX 2 2 1 2
BITMAP
C0
C0
ENDCHAR
STARTCHAR 2026
ENCODING 8230
SWIDTH 720 0
DWIDTH 8 0
BBX 7 2 1 0
BITMAP
94
F6
ENDCHAR
STARTCHAR 2030
ENCODING 8240
SWIDTH 1350 0
DWIDTH 15 0
BBX 14 8 1 0
BITMAP
E200
B200
B400
E800
1B18
17AC
24AC
67B8
ENDCHAR
STARTCHAR 2039
ENCODING 8249
SWIDTH 360 0
DWIDTH 4 0
BBX 3 5 1 1
BITMAP
60
C0
80
C0
60
ENDCHAR
STARTCHAR 203A
ENCODING 8250
SWIDTH 360 0
DWIDTH 4 0
BBX 3 5 1 1
BITMAP
80
40
60
40
C0
ENDCHAR
STARTCHAR 2044
ENCODING 8260
SWIDTH 630 0
DWIDTH 7 0
BBX 6 8 1 0
BITMAP
04
08
18
10
20
60
40
80
ENDCHAR
STARTCHAR 20AC
ENCODING 8364
SWIDTH 630 0
DWIDTH 7 0
BBX 6 8 1 0
BITMAP
1C
3C
60
F8
F8
60
74
3C
ENDCHAR
STARTCHAR 2122
ENCODING 8482
SWIDTH 810 0
DWIDTH 9 0
BBX 8 4 1 4
BITMAP
E5
DF
DD
D5
ENDCHAR
STARTCHAR 2190
ENCODING 8592
SWIDTH 810 0
DWIDTH 9 0
BBX 8 6 1 1
BITMAP
20
60
FF
FF
60
20
ENDCHAR
STARTCHAR 2191
ENCODING 8593
SWIDTH 630 0
DWIDTH 7 0
BBX 5 8 1 0
BITMAP
20
70
F8
A8
20
20
20
20
ENDCHAR
STARTCHAR 2192
ENCODING 8594
SWIDTH 810 0
DWIDTH 9 0
BBX 7 6 1 1
BITMAP
08
0C
FE
FE
0C
08
ENDCHAR
STARTCHAR 2193
ENCODING 8595
SWIDTH 630 0
DWIDTH 7 0
BBX 5 8 1 0
BITMAP
20
20
20
20
A0
E8
70
20
ENDCHAR
STARTCHAR 2194
ENCODING 8596
SWIDTH 900 0
DWIDTH 10 0
BBX 8 6 1 1
BITMAP
20
62
FF
FF
62
20
ENDCHAR
STARTCHAR 2195
ENCODING 8597
SWIDTH 630 0
DWIDTH 7 0
BBX 6 8 1 0
BITMAP
30
78
FC
30
30
B4
78
30
ENDCHAR
STARTCHAR 2196
ENCODING 8598
SWIDTH 630 0
DWIDTH 7 0
BBX 6 6 1 1
BITMAP
F0
C0
E0
B0
18
0C
ENDCHAR
STARTCHAR 2197
ENCODING 8599
SWIDTH 630 0
DWIDTH 7 0
BBX 6 6 1 1
BITMAP
3C
1C
34
64
C0
80
ENDCHAR
STARTCHAR 2198
ENCODING 8600
SWIDTH 630 0
DWIDTH 7 0
BBX 6 6 1 1
BITMAP
80
C0
64
34
1C
3C
ENDCHAR
STARTCHAR 2199
ENCODING 8601
SWIDTH 630 0
DWIDTH 7 0
BBX 5 6 1 1
BITMAP
08
18
90
A0
C0
F0
ENDCHAR
STARTCHAR 2202
ENCODING 8706
SWIDTH 540 0
DWIDTH 6 0
BBX 5 8 1 0
BITMAP
60
30
18
68
D8
98
D8
F0
ENDCHAR
STARTCHAR 2205
ENCODING 8709
SWIDTH 720 0
DWIDTH 8 0
BBX 7 7 1 1
BITMAP
7C
8C
92
A2
C4
CC
30
ENDCHAR
STARTCHAR 220F
ENCODING 8719
SWIDTH 630 0
DWIDTH 7 0
BBX 6 9 1 -1
BITMAP
FC
C8
C8
C8
C8
C8
C8
C8
C8
ENDCHAR
STARTCHAR 2211
ENCODING 8721
SWIDTH 450 0
DWIDTH 5 0
BBX 4 9 1 -1
BITMAP
F0
80
C0
60
20
60
C0
80
F0
ENDCHAR
STARTCHAR 2212
ENCODING 8722
SWIDTH 540 0
DWIDTH 6 0
BBX 5 1 1 3
BITMAP
F8
ENDCHAR
STARTCHAR 221A
ENCODING 8730
SWIDTH 720 0
DWIDTH 8 0
BBX 7 9 1 -1
BITMAP
0E
08
18
18
10
B0
F0
60
60
ENDCHAR
STARTCHAR 221E
ENCODING 8734
SWIDTH 810 0
DWIDTH 9 0
BBX 8 4 1 2
BITMAP
E6
99
99
E6
ENDCHAR
STARTCHAR 222B
ENCODING 8747
SWIDTH 540 0
DWIDTH 6 0
BBX 4 9 1 -1
BITMAP
30
20
20
20
60
60
40
40
C0
ENDCHAR
STARTCHAR 2248
ENCODING 8776
SWIDTH 540 0
DWIDTH 6 0
BBX 5 4 1 2
BITMAP
C0
F8
00
F8
ENDCHAR
STARTCHAR 2260
ENCODING 8800
SWIDTH 540 0
DWIDTH 6 0
BBX 5 6 1 1
BITMAP
30
20
F8
60
F8
40
ENDCHAR
STARTCHAR 2264
ENCODING 8804
SWIDTH 540 0
DWIDTH 6 0
BBX 5 5 1 1
BITMAP
38
E0
F8
00
F8
ENDCHAR
STARTCHAR 2265
ENCODING 8805
SWIDTH 540 0
DWIDTH 6 0
BBX 5 5 1 1
BITMAP
C0
38
F0
00
F8
ENDCHAR
STARTCHAR 25CA
ENCODING 9674
SWIDTH 540 0
DWIDTH 6 0
BBX 4 6 1 1
BITMAP
60
F0
90
90
F0
60
ENDCHAR
ENDFONT
